<svg width="54" height="54" viewBox="0 0 54 54" fill="none" xmlns="http://www.w3.org/2000/svg">
<path d="M27 4.5C14.574 4.5 4.5 14.574 4.5 27C4.5 36.948 10.881 45.443 19.862 48.193C20.962 48.389 21.375 47.722 21.375 47.148C21.375 46.629 21.348 44.955 21.348 43.173C15.75 44.1 14.325 41.647 13.878 40.365C13.627 39.711 12.555 37.821 11.625 37.302C10.857 36.891 9.757 35.964 11.598 35.937C13.331 35.91 14.561 37.545 14.974 38.212C16.96 41.593 20.151 40.635 21.456 40.061C21.645 38.67 22.222 37.685 22.852 37.113C17.766 36.54 12.447 34.695 12.447 26.264C12.447 23.73 13.331 21.645 15.027 20.039C14.811 19.467 14.036 17.091 15.244 13.905C15.244 13.905 17.095 13.306 21.375 16.294C23.145 15.775 25.031 15.516 26.918 15.516C28.804 15.516 30.69 15.775 32.46 16.294C36.74 13.279 38.591 13.905 38.591 13.905C39.799 17.091 39.024 19.467 38.808 20.039C40.504 21.645 41.388 23.703 41.388 26.264C41.388 34.722 36.042 36.54 30.957 37.113C31.751 37.794 32.44 39.105 32.44 41.148C32.44 43.983 32.413 46.251 32.413 47.148C32.413 47.722 32.826 48.416 33.926 48.193C38.4117 46.8019 42.3195 44.0423 45.1166 40.3031C47.9138 36.5639 49.4583 32.0406 49.455 27.393C49.5 14.574 39.399 4.5 27 4.5Z" fill="#F7F7F7"/>
</svg>