<svg width="54" height="54" viewBox="0 0 54 54" fill="none" xmlns="http://www.w3.org/2000/svg">
<path d="M46.0563 4.49983H7.94129C7.51284 4.49388 7.08742 4.57238 6.68931 4.73086C6.29121 4.88935 5.92822 5.1247 5.62108 5.42348C5.31395 5.72226 5.06867 6.07862 4.89927 6.4722C4.72987 6.86578 4.63966 7.28888 4.63379 7.71733V46.2823C4.63966 46.7108 4.72987 47.1339 4.89927 47.5275C5.06867 47.921 5.31395 48.2774 5.62108 48.5762C5.92822 48.875 6.29121 49.1103 6.68931 49.2688C7.08742 49.4273 7.51284 49.5058 7.94129 49.4998H46.0563C46.4847 49.5058 46.9102 49.4273 47.3083 49.2688C47.7064 49.1103 48.0694 48.875 48.3765 48.5762C48.6836 48.2774 48.9289 47.921 49.0983 47.5275C49.2677 47.1339 49.3579 46.7108 49.3638 46.2823V7.71733C49.3579 7.28888 49.2677 6.86578 49.0983 6.4722C48.9289 6.07862 48.6836 5.72226 48.3765 5.42348C48.0694 5.1247 47.7064 4.88935 47.3083 4.73086C46.9102 4.57238 46.4847 4.49388 46.0563 4.49983ZM18.2013 42.1648H11.4513V21.9148H18.2013V42.1648ZM14.8263 19.0798C13.8954 19.0798 13.0026 18.71 12.3443 18.0518C11.6861 17.3935 11.3163 16.5007 11.3163 15.5698C11.3163 14.6389 11.6861 13.7461 12.3443 13.0879C13.0026 12.4296 13.8954 12.0598 14.8263 12.0598C15.3206 12.0038 15.8212 12.0527 16.2953 12.2036C16.7693 12.3544 17.2062 12.6036 17.5773 12.935C17.9483 13.2664 18.2452 13.6724 18.4485 14.1264C18.6518 14.5805 18.7569 15.0723 18.7569 15.5698C18.7569 16.0673 18.6518 16.5592 18.4485 17.0132C18.2452 17.4673 17.9483 17.8733 17.5773 18.2047C17.2062 18.536 16.7693 18.7853 16.2953 18.9361C15.8212 19.0869 15.3206 19.1359 14.8263 19.0798ZM42.5463 42.1648H35.7963V31.2973C35.7963 28.5748 34.8288 26.7973 32.3763 26.7973C31.6173 26.8029 30.8782 27.041 30.2587 27.4795C29.6391 27.918 29.1689 28.5358 28.9113 29.2498C28.7352 29.7787 28.6589 30.3356 28.6863 30.8923V42.1423H21.9363C21.9363 42.1423 21.9363 23.7373 21.9363 21.8923H28.6863V24.7498C29.2995 23.6858 30.1913 22.8092 31.2658 22.2145C32.3402 21.6198 33.5566 21.3295 34.7838 21.3748C39.2838 21.3748 42.5463 24.2773 42.5463 30.5098V42.1648Z" fill="#F7F7F7"/>
</svg>
